HIERARCHY
ROOT Hip
{
  OFFSET 0.000000 0.000000 0.000000
  CHANNELS 6 Xposition Yposition Zposition Zrotation Xrotation Yrotation
  JOINT RHip
  {
    OFFSET 0.000000 0.000000 0.000000
    CHANNELS 3 Xposition Yposition Zposition
    End Site
    {
      OFFSET 0.000000 0.100000 0.000000
    }
  }
  JOINT RKnee
  {
    OFFSET 0.000000 0.000000 0.000000
    CHANNELS 3 Xposition Yposition Zposition
    End Site
    {
      OFFSET 0.000000 0.100000 0.000000
    }
  }
  JOINT RFoot
  {
    OFFSET 0.000000 0.000000 0.000000
    CHANNELS 3 Xposition Yposition Zposition
    End Site
    {
      OFFSET 0.000000 0.100000 0.000000
    }
  }
  JOINT LHip
  {
    OFFSET 0.000000 0.000000 0.000000
    CHANNELS 3 Xposition Yposition Zposition
    End Site
    {
      OFFSET 0.000000 0.100000 0.000000
    }
  }
  JOINT LKnee
  {
    OFFSET 0.000000 0.000000 0.000000
    CHANNELS 3 Xposition Yposition Zposition
    End Site
    {
      OFFSET 0.000000 0.100000 0.000000
    }
  }
  JOINT LFoot
  {
    OFFSET 0.000000 0.000000 0.000000
    CHANNELS 3 Xposition Yposition Zposition
    End Site
    {
      OFFSET 0.000000 0.100000 0.000000
    }
  }
  JOINT Spine
  {
    OFFSET 0.000000 0.000000 0.000000
    CHANNELS 3 Xposition Yposition Zposition
    End Site
    {
      OFFSET 0.000000 0.100000 0.000000
    }
  }
  JOINT Thorax
  {
    OFFSET 0.000000 0.000000 0.000000
    CHANNELS 3 Xposition Yposition Zposition
    End Site
    {
      OFFSET 0.000000 0.100000 0.000000
    }
  }
  JOINT Nose
  {
    OFFSET 0.000000 0.000000 0.000000
    CHANNELS 3 Xposition Yposition Zposition
    End Site
    {
      OFFSET 0.000000 0.100000 0.000000
    }
  }
  JOINT Head
  {
    OFFSET 0.000000 0.000000 0.000000
    CHANNELS 3 Xposition Yposition Zposition
    End Site
    {
      OFFSET 0.000000 0.100000 0.000000
    }
  }
  JOINT LShoulder
  {
    OFFSET 0.000000 0.000000 0.000000
    CHANNELS 3 Xposition Yposition Zposition
    End Site
    {
      OFFSET 0.000000 0.100000 0.000000
    }
  }
  JOINT LElbow
  {
    OFFSET 0.000000 0.000000 0.000000
    CHANNELS 3 Xposition Yposition Zposition
    End Site
    {
      OFFSET 0.000000 0.100000 0.000000
    }
  }
  JOINT LWrist
  {
    OFFSET 0.000000 0.000000 0.000000
    CHANNELS 3 Xposition Yposition Zposition
    End Site
    {
      OFFSET 0.000000 0.100000 0.000000
    }
  }
  JOINT RShoulder
  {
    OFFSET 0.000000 0.000000 0.000000
    CHANNELS 3 Xposition Yposition Zposition
    End Site
    {
      OFFSET 0.000000 0.100000 0.000000
    }
  }
  JOINT RElbow
  {
    OFFSET 0.000000 0.000000 0.000000
    CHANNELS 3 Xposition Yposition Zposition
    End Site
    {
      OFFSET 0.000000 0.100000 0.000000
    }
  }
  JOINT RWrist
  {
    OFFSET 0.000000 0.000000 0.000000
    CHANNELS 3 Xposition Yposition Zposition
    End Site
    {
      OFFSET 0.000000 0.100000 0.000000
    }
  }
}
MOTION
Frames: 11
Frame Time: 0.040000
0.083916 1.111936 0.000024 0.000000 0.000000 0.000000 0.056716 0.002634 0.067394 0.111957 -0.424057 0.019115 0.077493 -0.881343 -0.036036 -0.056717 -0.002594 -0.067434 -0.023239 -0.385039 -0.115660 -0.120095 -0.850946 -0.044842 0.032353 0.276012 0.029695 0.073606 0.600261 0.055646 0.149982 0.715826 0.028736 0.101189 0.793689 0.057912 0.004935 0.540930 -0.050492 -0.022150 0.253566 -0.239131 0.172445 0.206729 -0.210369 0.109123 0.543620 0.138187 0.089287 0.274048 0.328417 0.206384 0.285340 0.334374
0.087471 1.111978 0.000024 0.000000 0.000000 0.000000 0.055572 0.005420 0.070215 0.118018 -0.447773 0.030384 0.079452 -0.925735 -0.013118 -0.055574 -0.005381 -0.070255 -0.034035 -0.423233 -0.109011 -0.138259 -0.902492 -0.027019 0.035122 0.286034 0.022258 0.077485 0.615092 0.044206 0.157213 0.737314 0.015090 0.112939 0.815344 0.042972 0.008244 0.551255 -0.065151 -0.011758 0.254053 -0.266564 0.185979 0.197920 -0.235795 0.112606 0.554362 0.133221 0.091694 0.271460 0.322442 0.212914 0.282316 0.316335
0.093729 1.112158 0.000020 0.000000 0.000000 0.000000 0.053889 0.005981 0.072294 0.123174 -0.451761 0.024102 0.073685 -0.939817 -0.008693 -0.053891 -0.005944 -0.072324 -0.036684 -0.434686 -0.115913 -0.152135 -0.911165 -0.032309 0.038125 0.290055 0.020526 0.082332 0.620807 0.043781 0.166610 0.747322 0.013629 0.124717 0.821918 0.044219 0.014324 0.554991 -0.068945 0.004703 0.255609 -0.280006 0.204675 0.199064 -0.245940 0.114801 0.557722 0.139622 0.088966 0.270771 0.342067 0.223706 0.294479 0.339749
0.101527 1.112786 0.000013 0.000000 0.000000 0.000000 0.053095 0.004079 0.073113 0.128555 -0.437489 0.003328 0.066783 -0.922967 -0.022847 -0.053098 -0.004041 -0.073127 -0.031328 -0.418119 -0.134770 -0.160906 -0.877721 -0.059772 0.040428 0.286906 0.025912 0.087040 0.616306 0.056790 0.175976 0.744711 0.028092 0.133845 0.811965 0.065007 0.021302 0.552119 -0.058964 0.021724 0.258550 -0.273483 0.225751 0.209785 -0.234947 0.116050 0.552388 0.158131 0.081704 0.270582 0.383530 0.235099 0.316925 0.399121
0.109742 1.114151 0.000012 0.000000 0.000000 0.000000 0.052197 0.003045 0.074167 0.133601 -0.437436 -0.001763 0.070131 -0.925498 -0.024613 -0.052200 -0.003006 -0.074179 -0.024373 -0.416262 -0.139098 -0.169447 -0.869808 -0.068044 0.039364 0.285910 0.030110 0.086409 0.615820 0.067889 0.178321 0.746765 0.043963 0.135785 0.808588 0.081445 0.024272 0.552807 -0.050098 0.032120 0.260819 -0.263821 0.242448 0.218568 -0.219380 0.112810 0.550154 0.172389 0.074933 0.266696 0.402750 0.235518 0.328215 0.426041
0.117668 1.116351 0.000015 0.000000 0.000000 0.000000 0.047897 0.002724 0.074849 0.131694 -0.444003 0.004797 0.070742 -0.937124 -0.020115 -0.047900 -0.002686 -0.074866 -0.010957 -0.421951 -0.130137 -0.171110 -0.872654 -0.059960 0.035393 0.286777 0.032590 0.080496 0.618263 0.075329 0.173060 0.750363 0.057514 0.129953 0.810511 0.089313 0.025432 0.555258 -0.043567 0.041371 0.261443 -0.253480 0.253050 0.226543 -0.202953 0.102344 0.551383 0.180445 0.067737 0.262013 0.401152 0.226130 0.334366 0.423536
0.124881 1.119511 0.000018 0.000000 0.000000 0.000000 0.040734 0.002148 0.074936 0.123976 -0.446285 0.012309 0.063415 -0.941353 -0.021266 -0.040738 -0.002110 -0.074958 0.010215 -0.421830 -0.117652 -0.164926 -0.862496 -0.049946 0.031045 0.287019 0.035367 0.073563 0.619584 0.082434 0.165319 0.750998 0.070292 0.121524 0.811029 0.094942 0.028052 0.556450 -0.036792 0.053662 0.261061 -0.242928 0.261024 0.236030 -0.187013 0.088586 0.552407 0.187081 0.060607 0.258153 0.394637 0.214401 0.343282 0.413732
0.131085 1.123690 0.000020 0.000000 0.000000 0.000000 0.034023 0.001248 0.075277 0.117518 -0.445596 0.018211 0.054941 -0.940186 -0.028463 -0.034026 -0.001209 -0.075303 0.035948 -0.416697 -0.103546 -0.154645 -0.842139 -0.038019 0.028020 0.286386 0.038975 0.068742 0.619402 0.090203 0.159596 0.749383 0.083248 0.115255 0.809656 0.102808 0.032086 0.556543 -0.029854 0.067125 0.260093 -0.234333 0.268554 0.246464 -0.171560 0.077515 0.552308 0.194250 0.057608 0.253321 0.386839 0.205949 0.351984 0.398526
0.136107 1.128598 0.000021 0.000000 0.000000 0.000000 0.032250 -0.000182 0.076947 0.120245 -0.439173 0.013237 0.048439 -0.930821 -0.045022 -0.032253 0.000221 -0.076976 0.062666 -0.403693 -0.093871 -0.144368 -0.808806 -0.026153 0.028289 0.283917 0.045193 0.069748 0.615910 0.102688 0.161583 0.743443 0.099112 0.116827 0.803256 0.120745 0.036536 0.554208 -0.020501 0.079676 0.257930 -0.227038 0.277127 0.259008 -0.151615 0.076422 0.550293 0.207732 0.064154 0.246981 0.392544 0.211685 0.358224 0.390614
0.140008 1.133997 0.000022 0.000000 0.000000 0.000000 0.035214 -0.001269 0.080777 0.131438 -0.433250 0.004529 0.045241 -0.920957 -0.061035 -0.035218 0.001310 -0.080808 0.086845 -0.390106 -0.092886 -0.137823 -0.771335 -0.026298 0.031732 0.280475 0.051979 0.076122 0.610292 0.116645 0.171341 0.735148 0.113919 0.126406 0.793150 0.143152 0.040603 0.549824 -0.012534 0.088830 0.253506 -0.224321 0.286524 0.270337 -0.133277 0.084577 0.546776 0.225940 0.079762 0.239842 0.413682 0.233335 0.360629 0.393402
0.142831 1.139749 0.000025 0.000000 0.000000 0.000000 0.035376 -0.001238 0.084776 0.138489 -0.439091 0.011023 0.045253 -0.923855 -0.062690 -0.035379 0.001279 -0.084811 0.110419 -0.386684 -0.093243 -0.129909 -0.747451 -0.044728 0.034846 0.278493 0.054470 0.081414 0.606758 0.122301 0.179656 0.730338 0.120533 0.135207 0.786661 0.153337 0.045393 0.546313 -0.012475 0.096645 0.247950 -0.228831 0.294089 0.275263 -0.129749 0.089565 0.543145 0.236300 0.093136 0.232263 0.423801 0.252827 0.358745 0.387325
